HIERARCHY
ROOT Hips
{
	OFFSET	0.00	0.00	0.00
	CHANNELS 6 Xposition Yposition Zposition Zrotation Xrotation Yrotation
	JOINT LeftUpperLeg
	{
		OFFSET	 0.100000	-0.066564	-0.000554
		CHANNELS 3 Zrotation Xrotation Yrotation
		JOINT LeftLowerLeg
		{
			OFFSET	 0.002447	-0.463436	-0.005172
			CHANNELS 3 Zrotation Xrotation Yrotation
			JOINT LeftFoot
			{
				OFFSET	-0.002447	-0.420480	-0.020576
				CHANNELS 3 Zrotation Xrotation Yrotation
				JOINT LeftToes
				{
					OFFSET	 0.003734	-0.104922	 0.126407
					CHANNELS 3 Zrotation Xrotation Yrotation
					End Site
					{
						OFFSET	 0.000000	 0.000000	 0.059955
					}
				}
			}
		}
	}
	JOINT RightUpperLeg
	{
		OFFSET	-0.100000	-0.066564	-0.000554
		CHANNELS 3 Zrotation Xrotation Yrotation
		JOINT RightLowerLeg
		{
			OFFSET	-0.002447	-0.463436	-0.005146
			CHANNELS 3 Zrotation Xrotation Yrotation
			JOINT RightFoot
			{
				OFFSET	 0.002447	-0.420479	-0.020602
				CHANNELS 3 Zrotation Xrotation Yrotation
				JOINT RightToes
				{
					OFFSET	-0.003734	-0.104922	 0.126407
					CHANNELS 3 Zrotation Xrotation Yrotation
					End Site
					{
						OFFSET	-0.000000	 0.000000	 0.059955
					}
				}
			}
		}
	}
	JOINT Spine
	{
		OFFSET	 0.000000	 0.099235	-0.012273
		CHANNELS 3 Zrotation Xrotation Yrotation
		JOINT Chest
		{
			OFFSET	-0.000001	 0.116455	-0.014223
			CHANNELS 3 Zrotation Xrotation Yrotation
			JOINT UpperChest
			{
				OFFSET	 0.000001	 0.133602	-0.016265
				CHANNELS 3 Zrotation Xrotation Yrotation
				JOINT LeftShoulder
				{
					OFFSET	 0.061058	 0.091105	 0.007056
					CHANNELS 3 Zrotation Xrotation Yrotation
					JOINT LeftUpperArm
					{
						OFFSET	 0.133942	-0.002659	-0.026009
						CHANNELS 3 Zrotation Xrotation Yrotation
						JOINT LeftLowerArm
						{
							OFFSET	 0.274047	 0.000000	 0.000000
							CHANNELS 3 Zrotation Xrotation Yrotation
							JOINT LeftHand
							{
								OFFSET	 0.276145	 0.000000	 0.000000
								CHANNELS 3 Zrotation Xrotation Yrotation
								End Site
								{
									OFFSET	 0.165687	 0.000000	 0.000000
								}
							}
						}
					}
				}
				JOINT Neck
				{
					OFFSET	 0.000000	 0.150325	 0.007929
					CHANNELS 3 Zrotation Xrotation Yrotation
					JOINT Head
					{
						OFFSET	 0.000000	 0.103218	 0.031424
						CHANNELS 3 Zrotation Xrotation Yrotation
						End Site
						{
							OFFSET	 0.000000	 0.061931	 0.018855
						}
					}
				}
				JOINT RightShoulder
				{
					OFFSET	-0.061057	 0.091105	 0.007056
					CHANNELS 3 Zrotation Xrotation Yrotation
					JOINT RightUpperArm
					{
						OFFSET	-0.133943	-0.002660	-0.026009
						CHANNELS 3 Zrotation Xrotation Yrotation
						JOINT RightLowerArm
						{
							OFFSET	-0.274047	 0.000000	 0.000000
							CHANNELS 3 Zrotation Xrotation Yrotation
							JOINT RightHand
							{
								OFFSET	-0.276145	 0.000000	 0.000000
								CHANNELS 3 Zrotation Xrotation Yrotation
								End Site
								{
									OFFSET	-0.165687	 0.000000	 0.000000
								}
							}
						}
					}
				}
			}
		}
	}
}
MOTION
Frames:    12
Frame Time: 0.03333334
-0.029140	 1.040990	-1.121010	 3.326352	 2.286861	-149.528100	-2.818085	 7.969881	 19.283520	-0.027601	 6.883922	-0.003378	 7.134868	-17.312940	 22.793870	 0.000031	 2.001105	-0.000462	-6.534813	-4.402294	-22.406700	-0.006733	 0.943382	 0.000583	 7.225148	 2.682739	-5.049527	-0.000937	 0.382200	 0.000076	-0.686940	 1.153147	-3.450353	-0.000000	 0.000000	 0.000000	-1.307055	 2.348845	-6.902202	 0.587895	 2.044191	 30.396420	-78.698570	 13.409830	-2.959787	-33.381080	 26.243350	-52.455230	 17.143290	 30.100770	-1.863451	 10.329730	 16.666470	-1.622863	 10.439630	 16.829600	-1.695375	 2.504770	-2.986682	-31.953050	 76.721440	 17.333150	-2.840554	 33.082750	 15.579410	 48.887080	-12.423500	 1.565764	 2.514280
-0.029140	 1.040990	-1.121010	 3.326352	 2.286861	-149.528100	-2.818085	 7.969881	 19.283520	-0.027601	 6.883922	-0.003378	 7.134868	-17.312940	 22.793870	 0.000031	 2.001105	-0.000462	-6.534813	-4.402294	-22.406700	-0.006733	 0.943382	 0.000583	 7.225148	 2.682739	-5.049527	-0.000937	 0.382200	 0.000076	-0.686940	 1.153147	-3.450353	-0.000000	 0.000000	 0.000000	-1.307055	 2.348845	-6.902202	 0.587895	 2.044191	 30.396420	-78.698570	 13.409830	-2.959787	-33.381080	 26.243350	-52.455230	 17.143290	 30.100770	-1.863451	 10.329730	 16.666470	-1.622863	 10.439630	 16.829600	-1.695375	 2.504770	-2.986682	-31.953050	 76.721440	 17.333150	-2.840554	 33.082750	 15.579410	 48.887080	-12.423500	 1.565764	 2.514280
 0.054970	 1.042210	-1.204610	 0.464898	 1.807370	-150.082700	 1.486738	 11.453620	 19.502610	-0.048004	 5.237711	-0.002557	 1.258833	-12.796040	 21.384180	-0.000083	 0.393593	 0.826931	-6.764696	-11.843400	-20.450360	-0.653089	 23.677870	 0.144603	 11.761060	-7.993617	 0.232072	-0.000559	 0.447957	 1.301110	-0.857695	 0.978121	-3.399583	-0.000000	 0.000000	 0.000000	-1.660602	 2.010779	-6.799838	 0.890538	 1.950172	 31.414520	-79.549210	 15.245760	-3.451766	-32.433640	 24.886860	-51.696460	 18.921380	 30.657180	-2.925773	 10.232550	 16.540580	-0.928222	 10.589250	 16.896520	-1.091474	 0.167184	-3.311806	-33.288640	 77.779240	 17.650560	-3.808119	 34.160980	 17.558050	 46.403150	-13.660490	 2.717965	 1.450566
 0.069250	 1.042580	-1.221200	 0.428689	 2.644918	-149.116200	 3.965855	 11.028390	 19.241970	-0.109300	 8.238966	 0.002316	 0.433798	-13.230660	 20.385690	-0.000775	 0.407805	 0.976404	-4.527610	-10.694790	-15.360150	 0.222801	 23.846600	-0.040792	 10.452440	-9.993575	-5.185984	 0.001133	 0.442758	 1.265079	-0.565965	 1.198139	-3.423413	-0.000000	 0.000000	 0.000000	-1.062022	 2.431277	-6.850794	 1.949554	 2.794953	 31.168610	-80.130470	 15.370770	-2.955289	-32.272620	 24.914080	-51.846740	 19.666720	 31.237510	-2.819512	 11.743950	 17.399520	-2.046137	 11.161040	 16.925250	-1.915610	 1.311994	-2.333854	-33.513730	 77.213750	 17.633710	-4.019396	 34.043830	 17.530900	 46.223970	-13.035110	 2.741052	 1.550981
 0.083940	 1.044220	-1.237830	 0.366750	 3.430215	-147.814400	 6.059828	 11.699870	 19.246030	-0.072583	 8.467304	-0.000843	-0.593180	-12.021200	 18.812100	 0.000314	 0.427174	 1.117748	-2.431899	-8.597706	-16.384450	-0.263375	 22.169210	 0.059021	 7.815123	-10.423190	-5.595043	 0.000161	 0.411241	 1.012734	-0.271095	 1.426246	-3.601500	-0.000000	 0.000000	 0.000000	-0.451847	 2.872193	-7.212811	 2.245654	 2.551644	 30.907090	-80.899440	 15.921380	-2.018055	-32.002160	 24.822060	-52.590740	 19.265870	 31.195140	-2.392845	 12.613800	 17.289170	-3.300320	 11.929300	 16.858760	-2.845474	 1.312430	-2.471500	-33.930340	 76.722890	 18.437090	-4.642092	 33.473210	 17.532190	 46.584710	-13.143580	 3.021422	 1.822689
 0.083940	 1.044220	-1.237830	 0.366750	 3.430215	-147.814400	 6.059828	 11.699870	 19.246030	-0.072583	 8.467304	-0.000843	-0.593180	-12.021200	 18.812100	 0.000314	 0.427174	 1.117748	-2.431899	-8.597706	-16.384450	-0.263375	 22.169210	 0.059021	 7.815123	-10.423190	-5.595043	 0.000161	 0.411241	 1.012734	-0.271095	 1.426246	-3.601500	-0.000000	 0.000000	 0.000000	-0.451847	 2.872193	-7.212811	 2.245654	 2.551644	 30.907090	-80.899440	 15.921380	-2.018055	-32.002160	 24.822060	-52.590740	 19.265870	 31.195140	-2.392845	 12.613800	 17.289170	-3.300320	 11.929300	 16.858760	-2.845474	 1.312430	-2.471500	-33.930340	 76.722890	 18.437090	-4.642092	 33.473210	 17.532190	 46.584710	-13.143580	 3.021422	 1.822689
 0.108500	 1.050590	-1.263050	 0.719221	 4.634080	-145.181200	 10.465130	 10.439870	 16.978770	-0.223931	 11.691670	 0.014378	-1.707617	-8.808067	 17.588470	 0.000767	-0.300675	 0.567362	 1.687960	-4.183472	-15.614620	-0.013194	 16.063470	 0.013650	 5.325037	-9.015877	-9.113483	 0.000167	 0.403435	 0.946308	 0.420418	 1.891140	-3.799994	-0.000000	 0.000000	 0.000000	 0.968554	 3.759180	-7.635356	 2.757965	 2.134957	 31.001810	-82.194090	 16.737230	-1.851247	-32.403190	 25.502640	-52.964960	 17.762890	 31.091210	-2.465981	 13.819130	 16.519920	-5.029196	 13.260050	 16.344420	-4.743986	 1.659647	-3.292151	-33.860060	 75.274830	 18.276000	-4.233623	 33.261260	 17.769830	 45.801210	-13.074220	 3.707313	 1.743473
 0.118500	 1.053760	-1.273730	 0.649526	 4.877154	-144.277500	 13.419300	 9.415694	 17.829700	-0.182289	 13.486560	 0.011798	-3.067961	-5.253324	 14.847650	 0.000282	-2.591616	 0.902278	 3.189261	-2.001569	-16.584710	-0.177803	 12.486480	 0.028564	 4.538106	-7.700120	-9.149599	-0.000337	 0.403242	 0.936092	 0.539004	 1.940039	-3.881768	-0.000000	 0.000000	 0.000000	 1.213826	 3.847401	-7.805117	 2.409726	 2.024646	 31.093460	-82.387110	 16.912840	-2.170068	-32.115120	 25.606070	-52.597920	 17.341200	 31.399030	-2.547587	 14.032890	 16.451080	-5.573560	 13.750470	 16.371620	-5.388384	 1.490985	-3.498356	-33.886520	 74.859470	 18.570230	-3.929527	 33.250850	 17.498260	 45.157310	-13.373200	 3.749590	 1.735625
 0.126370	 1.056730	-1.283220	 0.007994	 4.803554	-143.787600	 15.847310	 8.687998	 18.769550	-0.211834	 14.719900	 0.016159	-3.208429	-0.056889	 11.735740	 0.000131	-5.297903	 1.429973	 3.885080	 0.294701	-17.406520	-0.154474	 8.818871	 0.017970	 3.595022	-6.268778	-8.916442	-0.000454	 0.399028	 0.892373	 0.453895	 1.957366	-3.918661	-0.000000	 0.000000	 0.000000	 1.043144	 3.886637	-7.876328	 1.767481	 1.979218	 31.465810	-82.573380	 17.341920	-2.619184	-31.725840	 25.476030	-51.883440	 17.144430	 31.854110	-2.273887	 13.877030	 16.497720	-5.868605	 14.026540	 16.502230	-5.779775	 1.002328	-3.720312	-33.644320	 74.702510	 18.866990	-3.950272	 32.958100	 17.224520	 44.673630	-13.785600	 3.713599	 1.835214
 0.132220	 1.059730	-1.291160	-1.494347	 3.786032	-142.938900	 15.813580	 7.864863	 20.075870	-0.295863	 15.382570	 0.029058	-0.709935	 4.932032	 6.974675	 0.000585	-8.756456	 2.314477	 3.435229	 2.700462	-17.831860	-0.070382	 4.343494	 0.005554	 2.112119	-4.471786	-9.572388	 0.000069	 0.387086	 0.759260	 0.189475	 1.858352	-3.906991	-0.000000	 0.000000	 0.000000	 0.506064	 3.709017	-7.842997	 1.321364	 1.948476	 31.933210	-83.385380	 18.784120	-3.276410	-30.776470	 24.703130	-51.216820	 15.256150	 32.296760	-0.462866	 14.194760	 16.823770	-6.303468	 14.719560	 17.065700	-6.367392	 0.200895	-4.316907	-33.622480	 74.669850	 19.491770	-4.450730	 33.229260	 17.396080	 43.202720	-15.447550	 2.903633	 3.224450
 0.136060	 1.061120	-1.296610	-2.344211	 3.346681	-142.709500	 15.380040	 7.959489	 22.264230	-0.307620	 15.216400	 0.029586	-0.483663	 3.426187	 0.956779	 0.000609	-5.162015	 1.221643	 3.367253	 4.300627	-17.986190	-0.028344	 1.588262	 0.001360	 1.123543	-3.350408	-9.800777	 0.000777	 0.379239	 0.668431	 0.101652	 1.804736	-3.845622	-0.000000	 0.000000	 0.000000	 0.326892	 3.606763	-7.717924	 2.317297	 2.592740	 33.034530	-84.634660	 20.722950	-3.822497	-30.376040	 23.867610	-50.278050	 12.988880	 32.552410	 1.300887	 14.416390	 17.055510	-6.211662	 14.624990	 17.148630	-6.360852	 0.492213	-4.254742	-33.287210	 74.331950	 19.559720	-4.469009	 33.079620	 17.106790	 43.426880	-15.201060	 2.753427	 3.213838
 0.139320	 1.062220	-1.301280	-3.748526	 2.883403	-142.407600	 13.794500	 8.405604	 24.995770	-0.227805	 14.344720	 0.016752	-0.131446	 1.232826	-4.813492	-0.000527	-0.346706	 0.123733	 2.540188	 5.368904	-18.221740	-0.008512	 0.581399	-0.000302	 0.314068	-3.050699	-10.032540	-0.000641	 0.375085	 0.593419	 0.262212	 2.000492	-3.522936	-0.000000	 0.000000	 0.000000	 0.648994	 3.986483	-7.076374	 2.555751	 2.962700	 33.483070	-85.853420	 23.059650	-5.150874	-29.942270	 23.000930	-47.936450	 10.890640	 32.309280	 2.081315	 14.255130	 17.130380	-5.990969	 14.148240	 16.562370	-6.554457	 2.053442	-2.591850	-31.284560	 72.788820	 17.912260	-3.015495	 32.082930	 16.298990	 45.212780	-14.943160	 3.050890	 3.595962
